<mxfile host="app.diagrams.net" agent="Mozilla/5.0 (Macintosh; Intel Mac OS X 10_15_7) AppleWebKit/537.36 (KHTML, like Gecko) Chrome/135.0.0.0 Safari/537.36" version="27.0.3">
  <diagram name="Seite-1" id="FOcl7WfCg0xngYPhtKIS">
    <mxGraphModel dx="815" dy="726" grid="1" gridSize="10" guides="1" tooltips="1" connect="1" arrows="1" fold="1" page="1" pageScale="1" pageWidth="1200" pageHeight="1920" math="0" shadow="0">
      <root>
        <mxCell id="0" />
        <mxCell id="1" parent="0" />
        <mxCell id="YQjempAsXAE3lYDQGC0X-82" style="edgeStyle=orthogonalEdgeStyle;rounded=0;orthogonalLoop=1;jettySize=auto;html=1;entryX=1;entryY=0.5;entryDx=0;entryDy=0;" parent="1" source="YQjempAsXAE3lYDQGC0X-17" target="YQjempAsXAE3lYDQGC0X-50" edge="1">
          <mxGeometry relative="1" as="geometry" />
        </mxCell>
        <mxCell id="YQjempAsXAE3lYDQGC0X-83" value="sieht ein" style="edgeLabel;html=1;align=center;verticalAlign=middle;resizable=0;points=[];" parent="YQjempAsXAE3lYDQGC0X-82" vertex="1" connectable="0">
          <mxGeometry y="-4" relative="1" as="geometry">
            <mxPoint as="offset" />
          </mxGeometry>
        </mxCell>
        <mxCell id="YQjempAsXAE3lYDQGC0X-90" style="edgeStyle=orthogonalEdgeStyle;rounded=0;orthogonalLoop=1;jettySize=auto;html=1;entryX=0;entryY=0.5;entryDx=0;entryDy=0;" parent="1" source="YQjempAsXAE3lYDQGC0X-17" target="YQjempAsXAE3lYDQGC0X-18" edge="1">
          <mxGeometry relative="1" as="geometry" />
        </mxCell>
        <mxCell id="YQjempAsXAE3lYDQGC0X-91" value="legt fest" style="edgeLabel;html=1;align=center;verticalAlign=middle;resizable=0;points=[];" parent="YQjempAsXAE3lYDQGC0X-90" vertex="1" connectable="0">
          <mxGeometry x="0.5273" y="2" relative="1" as="geometry">
            <mxPoint as="offset" />
          </mxGeometry>
        </mxCell>
        <mxCell id="YQjempAsXAE3lYDQGC0X-94" style="edgeStyle=orthogonalEdgeStyle;rounded=0;orthogonalLoop=1;jettySize=auto;html=1;entryX=0;entryY=0.25;entryDx=0;entryDy=0;" parent="1" source="YQjempAsXAE3lYDQGC0X-17" target="YQjempAsXAE3lYDQGC0X-20" edge="1">
          <mxGeometry relative="1" as="geometry" />
        </mxCell>
        <mxCell id="YQjempAsXAE3lYDQGC0X-95" value="verwaltet" style="edgeLabel;html=1;align=center;verticalAlign=middle;resizable=0;points=[];" parent="YQjempAsXAE3lYDQGC0X-94" vertex="1" connectable="0">
          <mxGeometry x="-0.0123" relative="1" as="geometry">
            <mxPoint as="offset" />
          </mxGeometry>
        </mxCell>
        <mxCell id="YQjempAsXAE3lYDQGC0X-96" style="edgeStyle=orthogonalEdgeStyle;rounded=0;orthogonalLoop=1;jettySize=auto;html=1;exitX=0.5;exitY=1;exitDx=0;exitDy=0;entryX=0.5;entryY=0;entryDx=0;entryDy=0;" parent="1" source="YQjempAsXAE3lYDQGC0X-17" target="YQjempAsXAE3lYDQGC0X-19" edge="1">
          <mxGeometry relative="1" as="geometry" />
        </mxCell>
        <mxCell id="YQjempAsXAE3lYDQGC0X-97" value="sperrt, gibt frei, ordnet als LCB zu" style="edgeLabel;html=1;align=center;verticalAlign=middle;resizable=0;points=[];" parent="YQjempAsXAE3lYDQGC0X-96" vertex="1" connectable="0">
          <mxGeometry x="-0.5167" relative="1" as="geometry">
            <mxPoint as="offset" />
          </mxGeometry>
        </mxCell>
        <mxCell id="YQjempAsXAE3lYDQGC0X-17" value="&lt;font style=&quot;vertical-align: inherit;&quot;&gt;&lt;font style=&quot;vertical-align: inherit;&quot;&gt;THB&lt;/font&gt;&lt;/font&gt;" style="swimlane;whiteSpace=wrap;html=1;" parent="1" vertex="1">
          <mxGeometry x="730" y="50" width="120" height="100" as="geometry" />
        </mxCell>
        <mxCell id="YQjempAsXAE3lYDQGC0X-18" value="&lt;font style=&quot;vertical-align: inherit;&quot;&gt;&lt;font style=&quot;vertical-align: inherit;&quot;&gt;THMCoin&lt;/font&gt;&lt;/font&gt;" style="swimlane;whiteSpace=wrap;html=1;" parent="1" vertex="1">
          <mxGeometry x="1000" y="65" width="130" height="100" as="geometry" />
        </mxCell>
        <mxCell id="YQjempAsXAE3lYDQGC0X-67" style="edgeStyle=orthogonalEdgeStyle;rounded=0;orthogonalLoop=1;jettySize=auto;html=1;exitX=0.5;exitY=1;exitDx=0;exitDy=0;entryX=0;entryY=0.5;entryDx=0;entryDy=0;" parent="1" source="YQjempAsXAE3lYDQGC0X-19" target="YQjempAsXAE3lYDQGC0X-29" edge="1">
          <mxGeometry relative="1" as="geometry" />
        </mxCell>
        <mxCell id="YQjempAsXAE3lYDQGC0X-72" value="stellt ein, nimmt wahr" style="edgeLabel;html=1;align=center;verticalAlign=middle;resizable=0;points=[];" parent="YQjempAsXAE3lYDQGC0X-67" vertex="1" connectable="0">
          <mxGeometry x="0.388" relative="1" as="geometry">
            <mxPoint as="offset" />
          </mxGeometry>
        </mxCell>
        <mxCell id="YQjempAsXAE3lYDQGC0X-69" style="edgeStyle=orthogonalEdgeStyle;rounded=0;orthogonalLoop=1;jettySize=auto;html=1;exitX=0.5;exitY=1;exitDx=0;exitDy=0;" parent="1" source="YQjempAsXAE3lYDQGC0X-19" target="YQjempAsXAE3lYDQGC0X-31" edge="1">
          <mxGeometry relative="1" as="geometry" />
        </mxCell>
        <mxCell id="YQjempAsXAE3lYDQGC0X-71" value="erhält" style="edgeLabel;html=1;align=center;verticalAlign=middle;resizable=0;points=[];" parent="YQjempAsXAE3lYDQGC0X-69" vertex="1" connectable="0">
          <mxGeometry x="-0.0032" y="2" relative="1" as="geometry">
            <mxPoint as="offset" />
          </mxGeometry>
        </mxCell>
        <mxCell id="YQjempAsXAE3lYDQGC0X-80" style="edgeStyle=orthogonalEdgeStyle;rounded=0;orthogonalLoop=1;jettySize=auto;html=1;exitX=1;exitY=0.5;exitDx=0;exitDy=0;entryX=0;entryY=0.5;entryDx=0;entryDy=0;" parent="1" source="YQjempAsXAE3lYDQGC0X-19" target="YQjempAsXAE3lYDQGC0X-22" edge="1">
          <mxGeometry relative="1" as="geometry" />
        </mxCell>
        <mxCell id="YQjempAsXAE3lYDQGC0X-81" value="ist registriert" style="edgeLabel;html=1;align=center;verticalAlign=middle;resizable=0;points=[];" parent="YQjempAsXAE3lYDQGC0X-80" vertex="1" connectable="0">
          <mxGeometry x="-0.6178" y="-2" relative="1" as="geometry">
            <mxPoint as="offset" />
          </mxGeometry>
        </mxCell>
        <mxCell id="YQjempAsXAE3lYDQGC0X-86" style="edgeStyle=orthogonalEdgeStyle;rounded=0;orthogonalLoop=1;jettySize=auto;html=1;entryX=1;entryY=0.5;entryDx=0;entryDy=0;" parent="1" source="YQjempAsXAE3lYDQGC0X-19" target="YQjempAsXAE3lYDQGC0X-23" edge="1">
          <mxGeometry relative="1" as="geometry" />
        </mxCell>
        <mxCell id="YQjempAsXAE3lYDQGC0X-87" value="erhält" style="edgeLabel;html=1;align=center;verticalAlign=middle;resizable=0;points=[];" parent="YQjempAsXAE3lYDQGC0X-86" vertex="1" connectable="0">
          <mxGeometry x="-0.5323" y="-1" relative="1" as="geometry">
            <mxPoint as="offset" />
          </mxGeometry>
        </mxCell>
        <mxCell id="YQjempAsXAE3lYDQGC0X-88" style="edgeStyle=orthogonalEdgeStyle;rounded=0;orthogonalLoop=1;jettySize=auto;html=1;entryX=0.75;entryY=0;entryDx=0;entryDy=0;" parent="1" source="YQjempAsXAE3lYDQGC0X-19" target="YQjempAsXAE3lYDQGC0X-26" edge="1">
          <mxGeometry relative="1" as="geometry" />
        </mxCell>
        <mxCell id="YQjempAsXAE3lYDQGC0X-89" value="gehört zu" style="edgeLabel;html=1;align=center;verticalAlign=middle;resizable=0;points=[];" parent="YQjempAsXAE3lYDQGC0X-88" vertex="1" connectable="0">
          <mxGeometry x="0.5921" relative="1" as="geometry">
            <mxPoint as="offset" />
          </mxGeometry>
        </mxCell>
        <mxCell id="YQjempAsXAE3lYDQGC0X-19" value="&lt;font style=&quot;vertical-align: inherit;&quot;&gt;&lt;font style=&quot;vertical-align: inherit;&quot;&gt;PUS&lt;/font&gt;&lt;/font&gt;" style="swimlane;whiteSpace=wrap;html=1;" parent="1" vertex="1">
          <mxGeometry x="710" y="260" width="140" height="100" as="geometry" />
        </mxCell>
        <mxCell id="YQjempAsXAE3lYDQGC0X-78" style="edgeStyle=orthogonalEdgeStyle;rounded=0;orthogonalLoop=1;jettySize=auto;html=1;exitX=0;exitY=0.75;exitDx=0;exitDy=0;entryX=0.5;entryY=0;entryDx=0;entryDy=0;" parent="1" source="YQjempAsXAE3lYDQGC0X-20" target="YQjempAsXAE3lYDQGC0X-22" edge="1">
          <mxGeometry relative="1" as="geometry" />
        </mxCell>
        <mxCell id="YQjempAsXAE3lYDQGC0X-79" value="legt an" style="edgeLabel;html=1;align=center;verticalAlign=middle;resizable=0;points=[];" parent="YQjempAsXAE3lYDQGC0X-78" vertex="1" connectable="0">
          <mxGeometry x="0.6" y="1" relative="1" as="geometry">
            <mxPoint as="offset" />
          </mxGeometry>
        </mxCell>
        <mxCell id="YQjempAsXAE3lYDQGC0X-92" style="edgeStyle=orthogonalEdgeStyle;rounded=0;orthogonalLoop=1;jettySize=auto;html=1;entryX=1;entryY=0.5;entryDx=0;entryDy=0;" parent="1" source="YQjempAsXAE3lYDQGC0X-20" target="YQjempAsXAE3lYDQGC0X-26" edge="1">
          <mxGeometry relative="1" as="geometry" />
        </mxCell>
        <mxCell id="YQjempAsXAE3lYDQGC0X-93" value="verwaltet" style="edgeLabel;html=1;align=center;verticalAlign=middle;resizable=0;points=[];" parent="YQjempAsXAE3lYDQGC0X-92" vertex="1" connectable="0">
          <mxGeometry x="0.6159" y="-2" relative="1" as="geometry">
            <mxPoint as="offset" />
          </mxGeometry>
        </mxCell>
        <mxCell id="YQjempAsXAE3lYDQGC0X-20" value="&lt;font style=&quot;vertical-align: inherit;&quot;&gt;&lt;font style=&quot;vertical-align: inherit;&quot;&gt;LCB&lt;/font&gt;&lt;/font&gt;" style="swimlane;whiteSpace=wrap;html=1;" parent="1" vertex="1">
          <mxGeometry x="1010" y="320" width="140" height="100" as="geometry" />
        </mxCell>
        <mxCell id="YQjempAsXAE3lYDQGC0X-22" value="&lt;font style=&quot;vertical-align: inherit;&quot;&gt;&lt;font style=&quot;vertical-align: inherit;&quot;&gt;Event&lt;/font&gt;&lt;/font&gt;" style="swimlane;whiteSpace=wrap;html=1;" parent="1" vertex="1">
          <mxGeometry x="1020" y="200" width="140" height="110" as="geometry" />
        </mxCell>
        <mxCell id="YQjempAsXAE3lYDQGC0X-23" value="&lt;font style=&quot;vertical-align: inherit;&quot;&gt;&lt;font style=&quot;vertical-align: inherit;&quot;&gt;Gutschrift&lt;/font&gt;&lt;/font&gt;" style="swimlane;whiteSpace=wrap;html=1;" parent="1" vertex="1">
          <mxGeometry x="270" y="230" width="140" height="110" as="geometry" />
        </mxCell>
        <mxCell id="YQjempAsXAE3lYDQGC0X-26" value="&lt;font style=&quot;vertical-align: inherit;&quot;&gt;&lt;font style=&quot;vertical-align: inherit;&quot;&gt;locale Community&lt;/font&gt;&lt;/font&gt;" style="swimlane;whiteSpace=wrap;html=1;startSize=30;" parent="1" vertex="1">
          <mxGeometry x="380" y="470" width="150" height="100" as="geometry" />
        </mxCell>
        <mxCell id="YQjempAsXAE3lYDQGC0X-29" value="&lt;font style=&quot;vertical-align: inherit;&quot;&gt;&lt;font style=&quot;vertical-align: inherit;&quot;&gt;Wettanfrage&lt;/font&gt;&lt;/font&gt;" style="swimlane;whiteSpace=wrap;html=1;" parent="1" vertex="1">
          <mxGeometry x="710" y="730" width="140" height="90" as="geometry" />
        </mxCell>
        <mxCell id="YQjempAsXAE3lYDQGC0X-31" value="&lt;font style=&quot;vertical-align: inherit;&quot;&gt;&lt;font style=&quot;vertical-align: inherit;&quot;&gt;Ankündigung&lt;/font&gt;&lt;/font&gt;" style="swimlane;whiteSpace=wrap;html=1;" parent="1" vertex="1">
          <mxGeometry x="480" y="710" width="150" height="130" as="geometry" />
        </mxCell>
        <mxCell id="YQjempAsXAE3lYDQGC0X-74" style="edgeStyle=orthogonalEdgeStyle;rounded=0;orthogonalLoop=1;jettySize=auto;html=1;exitX=1;exitY=0.5;exitDx=0;exitDy=0;entryX=0;entryY=0.5;entryDx=0;entryDy=0;" parent="1" source="YQjempAsXAE3lYDQGC0X-32" target="YQjempAsXAE3lYDQGC0X-31" edge="1">
          <mxGeometry relative="1" as="geometry" />
        </mxCell>
        <mxCell id="YQjempAsXAE3lYDQGC0X-75" value="erfasst" style="edgeLabel;html=1;align=center;verticalAlign=middle;resizable=0;points=[];" parent="YQjempAsXAE3lYDQGC0X-74" vertex="1" connectable="0">
          <mxGeometry x="0.5333" relative="1" as="geometry">
            <mxPoint as="offset" />
          </mxGeometry>
        </mxCell>
        <mxCell id="YQjempAsXAE3lYDQGC0X-32" value="&lt;font style=&quot;vertical-align: inherit;&quot;&gt;&lt;font style=&quot;vertical-align: inherit;&quot;&gt;KWA&lt;/font&gt;&lt;/font&gt;" style="swimlane;whiteSpace=wrap;html=1;" parent="1" vertex="1">
          <mxGeometry x="230" y="680" width="150" height="130" as="geometry" />
        </mxCell>
        <mxCell id="YQjempAsXAE3lYDQGC0X-50" value="Dashboard" style="swimlane;whiteSpace=wrap;html=1;" parent="1" vertex="1">
          <mxGeometry x="340" y="20" width="130" height="90" as="geometry" />
        </mxCell>
        <mxCell id="YQjempAsXAE3lYDQGC0X-84" style="edgeStyle=orthogonalEdgeStyle;rounded=0;orthogonalLoop=1;jettySize=auto;html=1;entryX=0.547;entryY=0.02;entryDx=0;entryDy=0;entryPerimeter=0;" parent="1" source="YQjempAsXAE3lYDQGC0X-17" target="YQjempAsXAE3lYDQGC0X-26" edge="1">
          <mxGeometry relative="1" as="geometry" />
        </mxCell>
        <mxCell id="YQjempAsXAE3lYDQGC0X-85" value="legt an" style="edgeLabel;html=1;align=center;verticalAlign=middle;resizable=0;points=[];" parent="YQjempAsXAE3lYDQGC0X-84" vertex="1" connectable="0">
          <mxGeometry x="0.4178" relative="1" as="geometry">
            <mxPoint as="offset" />
          </mxGeometry>
        </mxCell>
      </root>
    </mxGraphModel>
  </diagram>
</mxfile>
